<svg xmlns="http://www.w3.org/2000/svg" width="159" height="78" fill="none" viewBox="0 0 159 78"><path fill="currentColor" fill-rule="evenodd" d="M0 29.4h13.26v4.72a11.4 11.4 0 0 1 4.5-3.87 15 15 0 0 1 6.97-1.7q5.44 0 9.01 2.55.98.69 1.82 1.5.18-4.4 2.1-8.02a16.6 16.6 0 0 1 6.3-6.37 18.6 18.6 0 0 1 9.52-2.38q5.61 0 9.6 2.38a16 16 0 0 1 6.12 6.37 18 18 0 0 1 1.96 6.33q1.02-.69 2.27-1.17 3.07-1.28 7.06-1.28c3.07 0 5.62.82 7.43 1.99q.31-3.42 1.69-6.48a16.5 16.5 0 0 1 5.43-6.55q3.66-2.55 9.01-2.55 3.66 0 6.97 1.7 2.34 1.14 3.91 3.08V6.03h-5.86V0h13.85v42.6q.5-2.82 1.82-5.3a16.6 16.6 0 0 1 6.29-6.37 18.6 18.6 0 0 1 9.52-2.38q5.61 0 9.6 2.38a16 16 0 0 1 6.12 6.37 19 19 0 0 1 2.13 9.01v3.23h-27.85q.71 2.93 2.77 4.93 3.15 2.98 9.44 2.98 3.57 0 6.71-1.2a17 17 0 0 0 5.36-3.05l3.31 5.6a20 20 0 0 1-6.88 3.92q-4.08 1.35-8.76 1.36-6.54 0-11.04-2.38a16 16 0 0 1-8.59-12.15h-7.43v-4.63a12 12 0 0 1-4.42 3.78 15 15 0 0 1-6.97 1.7q-4.41 0-7.68-1.74a9.5 9.5 0 0 1 1.29 5.13q0 3.15-1.7 5.44a10.5 10.5 0 0 1-4.6 3.57 18 18 0 0 1-7.05 1.28q-5.94 0-9.18-1.96-1.36-.9-2.38-2.08v3.19h-5.7V51.58h5.1a8 8 0 0 0 1.96 4.08 10 10 0 0 0 3.83 2.47q2.3.85 4.93.85 3.56 0 5.27-1.2a3.6 3.6 0 0 0 1.7-3.05q0-1.37-1.1-2.3-1.03-1.02-4.26-1.87l-7.9-1.95a19 19 0 0 1-5.61-2.43A20 20 0 0 1 64.18 50q-4.07 1.35-8.75 1.36-6.54 0-11.05-2.38a18 18 0 0 1-3.42-2.37 20.5 20.5 0 0 1-1.86 8.29 16 16 0 0 1-5.36 6.63q-3.57 2.55-9 2.55-3.66 0-6.98-1.7a12 12 0 0 1-3.9-3.12v12.46h5v6.04H.35v-6.04h5.52V35.35H0zm30.34 25.07a9.7 9.7 0 0 1-7.14 2.9q-2.72 0-5.27-1.11a11.4 11.4 0 0 1-4.08-3.06V39.4a10.4 10.4 0 0 1 4.08-3.03q2.55-1.1 5.27-1.1a9.7 9.7 0 0 1 7.14 2.88q2.98 2.8 2.98 8.08 0 5.35-2.98 8.24M62.5 26.54a7.4 7.4 0 0 1 1.27 4.08H43.14q.16-1.98 1.16-3.83a10.3 10.3 0 0 1 9.18-5.01q3.3 0 5.52 1.36 2.3 1.35 3.49 3.4m-6.8 18.19q-6.3 0-9.44-2.98a10 10 0 0 1-2.77-4.93h23.77a12 12 0 0 0-.01 4.09 17 17 0 0 1-4.84 2.63q-3.14 1.19-6.71 1.19m26.16-11.17q2.12 0 4 .68 1.2.45 2.15 1.2.4 3 1.6 5.78a17 17 0 0 0 2.52 3.96 21 21 0 0 0-4.15-1.42l-7.9-1.87a13 13 0 0 1-4-1.61 2.8 2.8 0 0 1-1.2-2.47 3.6 3.6 0 0 1 1.7-3.06q1.8-1.2 5.28-1.19m29 9.02q-2.55 1.1-5.27 1.1a10 10 0 0 1-7.22-2.88q-2.9-2.9-2.89-8.25 0-5.26 2.89-8.07a10 10 0 0 1 7.22-2.9q2.72 0 5.27 1.11a10 10 0 0 1 4.08 3.02v13.83a11 11 0 0 1-4.08 3.04m38.7-3.32a7.4 7.4 0 0 1 1.28 4.08h-20.62q.16-1.98 1.16-3.83a10.3 10.3 0 0 1 9.18-5.01q3.3 0 5.52 1.36 2.3 1.36 3.49 3.4" clip-rule="evenodd"/></svg>
